HIERARCHY
ROOT Pelvis
{
	OFFSET 0.000000 0.000000 0.000000
	CHANNELS 6 Xposition Yposition Zposition Xrotation Yrotation Zrotation
	JOINT LeftUpLeg_virtual
	{
		OFFSET 0.000000 0.000000 0.000000
		CHANNELS 3 Xrotation Yrotation Zrotation
		JOINT LeftUpLeg
		{
			OFFSET 18.735201 -5.666702 -4.541200
			CHANNELS 3 Xrotation Yrotation Zrotation
			JOINT LeftLeg
			{
				OFFSET -0.021200 -31.938179 0.493100
				CHANNELS 3 Xrotation Yrotation Zrotation
				JOINT LeftFoot
				{
					OFFSET 0.021200 -31.938179 -4.336299
					CHANNELS 3 Xrotation Yrotation Zrotation
					JOINT LeftToeBase
					{
						OFFSET 0.943001 -26.722000 15.023500
						CHANNELS 3 Xrotation Yrotation Zrotation
						End Site
						{
							OFFSET 0 0 0
						}
					}
				}
			}
		}
	}
	JOINT RightUpLeg_virtual
	{
		OFFSET 0.000000 0.000000 0.000000
		CHANNELS 3 Xrotation Yrotation Zrotation
		JOINT RightUpLeg
		{
			OFFSET -18.735201 -5.666702 -4.541200
			CHANNELS 3 Xrotation Yrotation Zrotation
			JOINT RightLeg
			{
				OFFSET 0.018946 -31.938133 0.493100
				CHANNELS 3 Xrotation Yrotation Zrotation
				JOINT RightFoot
				{
					OFFSET -0.018946 -31.938126 -4.336299
					CHANNELS 3 Xrotation Yrotation Zrotation
					JOINT RightToeBase
					{
						OFFSET -0.943001 -26.722004 15.023500
						CHANNELS 3 Xrotation Yrotation Zrotation
						End Site
						{
							OFFSET 0 0 0
						}
					}
				}
			}
		}
	}
	JOINT Hips_virtual
	{
		OFFSET 0.000000 0.000000 0.000000
		CHANNELS 3 Xrotation Yrotation Zrotation
		JOINT Hips
		{
			OFFSET -0.000000 -0.000000 -0.000000
			CHANNELS 3 Xrotation Yrotation Zrotation
			JOINT Spine
			{
				OFFSET 0.000000 10.199997 -0.299500
				CHANNELS 3 Xrotation Yrotation Zrotation
				JOINT Spine1
				{
					OFFSET 0.000000 11.900002 -1.516600
					CHANNELS 3 Xrotation Yrotation Zrotation
					JOINT Spine2
					{
						OFFSET 0.000000 13.600006 -2.842500
						CHANNELS 3 Xrotation Yrotation Zrotation
						JOINT Neck_virtual
						{
							OFFSET 0.000000 0.000000 0.000000
							CHANNELS 3 Xrotation Yrotation Zrotation
							JOINT Neck
							{
								OFFSET 0.000000 9.624100 -2.890100
								CHANNELS 3 Xrotation Yrotation Zrotation
								JOINT Head
								{
									OFFSET 0.000000 14.068802 -1.351900
									CHANNELS 3 Xrotation Yrotation Zrotation
									End Site
									{
										OFFSET 0 0 0
									}
								}
							}
						}
						JOINT LeftShoulder_virtual
						{
							OFFSET 0.000000 0.000000 0.000000
							CHANNELS 3 Xrotation Yrotation Zrotation
							JOINT LeftShoulder
							{
								OFFSET 15.263000 10.923401 -0.547700
								CHANNELS 3 Xrotation Yrotation Zrotation
								JOINT LeftArm
								{
									OFFSET 25.438599 -2.830597 -13.032500
									CHANNELS 3 Xrotation Yrotation Zrotation
									JOINT LeftForeArm
									{
										OFFSET 29.960503 0.000000 0.000000
										CHANNELS 3 Xrotation Yrotation Zrotation
										JOINT LeftHand
										{
											OFFSET 27.849251 0.000000 0.000000
											CHANNELS 3 Xrotation Yrotation Zrotation
											End Site
											{
												OFFSET 0 0 0
											}
										}
									}
								}
							}
						}
						JOINT RightShoulder_virtual
						{
							OFFSET 0.000000 0.000000 0.000000
							CHANNELS 3 Xrotation Yrotation Zrotation
							JOINT RightShoulder
							{
								OFFSET -15.263000 10.923401 -0.547700
								CHANNELS 3 Xrotation Yrotation Zrotation
								JOINT RightArm
								{
									OFFSET -25.438599 -2.830597 -13.032500
									CHANNELS 3 Xrotation Yrotation Zrotation
									JOINT RightForeArm
									{
										OFFSET -29.960503 0.000000 0.000000
										CHANNELS 3 Xrotation Yrotation Zrotation
										JOINT RightHand
										{
											OFFSET -27.849251 0.000000 0.000000
											CHANNELS 3 Xrotation Yrotation Zrotation
											End Site
											{
												OFFSET 0 0 0
											}
										}
									}
								}
							}
						}
					}
				}
			}
		}
	}
}
MOTION
Frames: 13
Frame Time: 0.03333333
96.413124 79.515335 194.436676 0.000000 0.000000 0.000000 -142.996335 19.384517 146.215458 -69.389312 -0.270154 41.166629 91.212368 -1.548922 -16.575670 30.937362 -7.969142 -3.545524 0.000000 0.000000 0.000000 -155.535101 17.846451 144.075273 -70.620946 22.872418 -62.778359 89.329913 11.553431 2.622619 -9.107279 -3.669553 37.983358 0.000000 0.000000 0.000000 -145.949531 20.561323 136.526165 -0.512261 1.002780 -1.943551 19.424213 3.979227 9.428620 -1.249410 2.960924 7.057323 0.000000 0.000000 0.000000 2.082381 3.176507 6.843665 6.272193 0.949421 4.046898 0.000000 0.000000 0.000000 1.517871 3.477353 5.792573 -2.610488 -0.289878 7.193448 5.662946 -21.941949 -8.976826 2.221619 -20.152984 1.155044 0.000000 0.000000 0.000000 0.010743 3.494577 6.028389 0.194836 -1.782512 18.449611 -51.817302 8.547957 17.763001 4.264638 28.974219 -1.130265 0.000000 0.000000 0.000000 
103.082893 74.557518 203.835052 0.000000 0.000000 0.000000 -115.467708 -34.814222 159.570718 -73.973114 3.277832 39.027718 81.270973 1.924678 -17.650433 37.212612 -3.260010 0.809578 0.000000 0.000000 0.000000 -122.724375 -35.375582 149.796253 -77.215179 21.445119 -58.339870 81.508124 11.560509 3.011732 8.394571 -0.969295 37.242836 0.000000 0.000000 0.000000 -123.323737 -33.514099 146.794562 0.032450 -1.358081 -2.064059 18.614736 4.506048 7.506883 -0.850613 3.542675 6.289048 0.000000 0.000000 0.000000 2.460622 3.716659 6.011629 6.748222 0.849265 3.723360 0.000000 0.000000 0.000000 1.642537 4.112384 5.256047 -1.595533 0.942143 7.977174 1.848839 -18.351800 -9.635840 2.023688 -19.275287 1.209805 0.000000 0.000000 0.000000 0.365700 4.119651 5.684707 0.391504 -0.020406 18.107508 -54.534949 4.884157 23.954488 4.627325 28.466733 -1.585859 0.000000 0.000000 0.000000 
110.062073 67.923355 213.631134 0.000000 0.000000 0.000000 -102.224737 -44.788101 166.566184 -80.992076 5.513065 36.720893 75.796262 4.222088 -17.330270 46.322172 2.331044 4.602424 0.000000 0.000000 0.000000 -107.705478 -45.707465 158.197344 -85.932727 18.072385 -52.424974 68.142181 11.128087 5.083725 26.820565 0.920981 35.667535 0.000000 0.000000 0.000000 -110.384968 -44.411143 154.206096 0.413993 -3.872048 -1.166197 18.789415 4.855984 5.405743 -0.445744 4.022253 5.920996 0.000000 0.000000 0.000000 2.538556 4.180275 5.766968 6.981396 0.820566 3.413636 0.000000 0.000000 0.000000 2.014298 4.616788 5.172089 -0.859401 2.524760 7.558094 -1.005703 -7.413486 -11.891703 1.062874 -26.498048 1.601329 0.000000 0.000000 0.000000 0.713683 4.612238 5.738779 0.628452 1.675180 17.629533 -55.659215 0.980243 28.407032 4.685419 31.337973 -1.802552 0.000000 0.000000 0.000000 
116.914284 59.112053 224.726654 0.000000 0.000000 0.000000 -96.230235 -46.897896 167.947262 -86.746524 6.311832 34.052366 76.279648 3.701697 -14.949045 52.821469 4.909914 5.445134 0.000000 0.000000 0.000000 -99.086763 -47.534015 163.060439 -95.273113 13.725356 -44.278323 53.233005 10.651765 7.332912 38.916997 1.827414 35.060020 0.000000 0.000000 0.000000 -102.485896 -46.870039 157.707019 2.035213 -5.828124 -0.402194 20.143655 4.625667 3.730234 0.227292 4.334810 5.933753 0.000000 0.000000 0.000000 2.792959 4.531059 6.075342 7.017325 0.845499 3.109420 0.000000 0.000000 0.000000 2.701680 4.878062 5.440745 -0.348465 3.084164 5.336071 -1.719834 5.870176 -15.539495 -0.704821 -39.008453 1.803739 0.000000 0.000000 0.000000 1.255195 4.928697 6.111834 0.773536 2.985902 17.203433 -55.705619 -1.913257 29.380865 4.227889 38.400399 -1.439027 0.000000 0.000000 0.000000 
123.601028 49.350426 236.679596 0.000000 0.000000 0.000000 -93.910101 -45.709101 167.021812 -87.319003 6.415886 31.976350 79.260035 -0.141652 -10.831035 50.829954 -1.076128 1.845466 0.000000 0.000000 0.000000 -94.896039 -45.895582 165.420215 -106.028284 10.282023 -33.905995 44.599906 11.053295 8.253805 44.490148 3.139333 35.622776 0.000000 0.000000 0.000000 -97.272242 -46.181791 159.696298 2.629548 -5.077476 0.284108 22.268018 3.606354 2.937867 1.220966 4.427839 6.158884 0.000000 0.000000 0.000000 3.646874 4.737490 6.587072 6.899056 0.883905 2.811504 0.000000 0.000000 0.000000 3.863184 4.931924 5.794169 0.102283 1.586427 1.001899 -0.767269 15.205454 -20.165681 -2.855600 -51.876673 1.358846 0.000000 0.000000 0.000000 1.961111 5.061073 6.483813 0.639336 3.442985 17.209000 -55.253642 -3.310774 27.984388 2.664816 48.355236 -0.024143 0.000000 0.000000 0.000000 
130.171173 40.045998 248.628296 0.000000 0.000000 0.000000 -93.440253 -42.564745 165.717957 -84.358799 6.403377 32.442019 84.468963 -6.165362 -6.122221 40.894713 -12.412750 -6.631610 0.000000 0.000000 0.000000 -94.052203 -41.749531 165.755195 -118.699740 8.013232 -22.794971 51.003543 13.084554 6.919830 43.492329 4.192170 36.716355 0.000000 0.000000 0.000000 -93.725154 -43.197166 161.158942 2.942467 -3.888906 -0.360536 23.998430 1.786372 3.154612 2.483578 4.428442 6.235494 0.000000 0.000000 0.000000 5.212000 4.881723 6.767980 6.742155 0.908744 2.533367 0.000000 0.000000 0.000000 5.288994 4.907591 5.887174 0.317615 -1.832376 -3.936993 1.833647 16.706740 -24.488255 -5.329067 -59.942102 -0.166584 0.000000 0.000000 0.000000 3.140884 5.092417 6.534605 0.294775 2.942853 17.653607 -53.605828 -3.202897 26.312139 -0.369251 58.208614 2.759154 0.000000 0.000000 0.000000 
136.352432 31.951736 259.917297 0.000000 0.000000 0.000000 -93.868014 -38.051165 164.746485 -82.223894 6.846944 37.354991 94.693927 -10.096049 -2.796943 28.206612 -18.167875 -15.000132 0.000000 0.000000 0.000000 -94.884885 -36.303022 165.277355 -131.423823 6.379802 -11.829127 71.720278 15.130822 3.009486 36.992547 3.492454 36.635571 0.000000 0.000000 0.000000 -91.609646 -38.550981 162.612447 2.780604 -1.833526 -0.830331 24.381386 -0.670087 3.538312 4.098239 4.342694 5.765786 0.000000 0.000000 0.000000 7.359159 4.961194 6.269976 6.539790 0.846043 2.334705 0.000000 0.000000 0.000000 6.677329 4.886736 5.411546 0.299195 -6.010992 -7.755445 4.645296 11.178265 -26.130019 -6.669079 -62.069440 -1.509018 0.000000 0.000000 0.000000 4.647565 5.093200 5.930582 0.336669 1.124716 18.599409 -50.223505 -1.969602 26.212912 -4.368809 64.543409 6.240411 0.000000 0.000000 0.000000 
141.982986 26.437412 268.970978 0.000000 0.000000 0.000000 -94.868206 -32.950608 164.487006 -82.405700 6.724772 44.619823 105.658034 -10.214888 -2.115925 18.312902 -16.177858 -16.810496 0.000000 0.000000 0.000000 -96.928437 -30.827099 164.790745 -140.921283 4.749308 -1.767390 94.056500 14.429927 -1.753654 26.500045 0.408020 33.967490 0.000000 0.000000 0.000000 -90.598600 -33.797572 164.396438 1.458849 -0.040707 -1.636204 22.585690 -3.238259 3.378145 5.573100 4.234579 4.593638 0.000000 0.000000 0.000000 9.224553 4.915837 4.946547 6.268310 0.663963 2.249703 0.000000 0.000000 0.000000 7.726466 4.909303 4.281610 0.382190 -9.404081 -8.898799 8.329113 2.982041 -23.856273 -6.134484 -62.412971 -1.900073 0.000000 0.000000 0.000000 6.143847 5.033853 4.541343 0.904875 -1.863819 20.263944 -45.920017 -0.227038 27.876961 -7.218064 66.914236 8.331285 0.000000 0.000000 0.000000 
146.548508 23.336403 274.976105 0.000000 0.000000 0.000000 -96.340522 -28.092329 164.838788 -82.355061 5.480158 50.191010 109.908112 -8.217263 -3.412960 14.882772 -10.646973 -10.793856 0.000000 0.000000 0.000000 -99.005641 -26.584910 165.147854 -144.637807 3.224531 7.226504 108.328474 12.414414 -5.612320 13.019367 -2.564913 29.160099 0.000000 0.000000 0.000000 -91.633497 -29.906728 166.126033 -0.004583 0.613190 -1.967989 18.225508 -5.282899 2.367118 6.439968 4.047324 2.835075 0.000000 0.000000 0.000000 10.004461 4.734282 3.100180 5.888364 0.346297 2.299989 0.000000 0.000000 0.000000 8.098751 4.904118 2.662783 1.060452 -11.103665 -6.468121 15.776070 -3.168460 -18.806333 -4.541989 -64.345525 -1.708977 0.000000 0.000000 0.000000 7.233974 4.856215 2.627386 2.254865 -5.772420 22.670911 -42.764296 1.470483 29.482641 -7.604419 67.022345 7.900482 0.000000 0.000000 0.000000 
149.739807 22.204823 278.257385 0.000000 0.000000 0.000000 -98.277898 -24.210012 165.684352 -80.718978 3.021438 52.533447 106.378817 -5.469578 -5.159904 18.207189 -3.836955 -1.355735 0.000000 0.000000 0.000000 -101.082504 -23.797383 166.212216 -143.184193 2.686217 15.058916 113.994922 11.392484 -8.251628 0.373118 -2.787771 24.667850 0.000000 0.000000 0.000000 -94.465949 -27.642069 167.770510 -1.740653 0.304173 -1.297050 12.301586 -6.224395 0.771039 6.431768 3.747286 0.839705 0.000000 0.000000 0.000000 9.113725 4.469246 1.231140 5.288888 -0.091640 2.476840 0.000000 0.000000 0.000000 7.699776 4.772549 0.877448 2.376997 -11.257563 -1.491415 26.720598 -3.942342 -14.066236 -1.769815 -70.094120 -0.300859 0.000000 0.000000 0.000000 7.301697 4.559982 0.517962 4.440271 -10.355750 25.460358 -43.203194 1.608881 28.180592 -6.839472 67.811607 6.417209 0.000000 0.000000 0.000000 
151.813095 22.126301 279.487518 0.000000 0.000000 0.000000 -101.082729 -21.733754 166.746433 -77.465690 -0.153811 52.171225 95.479645 -3.672113 -6.112852 25.930082 1.058198 5.118769 0.000000 0.000000 0.000000 -103.748579 -22.119458 167.326193 -138.658782 3.995107 19.485649 113.897024 12.181110 -9.464244 -5.144942 0.350526 23.147603 0.000000 0.000000 0.000000 -98.696753 -26.687900 168.620746 -3.089085 -1.182046 -1.036734 6.247582 -5.553488 -0.353527 5.331066 3.602514 -0.940990 0.000000 0.000000 0.000000 6.561698 4.297865 -0.281299 4.540147 -0.605905 2.709469 0.000000 0.000000 0.000000 6.570180 4.636618 -0.701268 4.221019 -10.805880 4.434250 39.198596 -1.424745 -13.666403 3.684370 -78.516672 4.222677 0.000000 0.000000 0.000000 6.318769 4.247195 -1.351769 6.995080 -15.071741 27.772777 -48.394325 -1.108746 22.211160 -7.033219 72.056187 6.298564 0.000000 0.000000 0.000000 
152.977600 21.697147 279.428131 0.000000 0.000000 0.000000 -104.545164 -20.051794 167.439301 -75.070165 -4.945631 49.565826 80.158485 -3.981218 -6.515942 35.406044 2.020382 7.068166 0.000000 0.000000 0.000000 -106.895869 -21.322510 168.228994 -132.249073 6.581639 19.570999 110.672376 14.341058 -9.007303 -2.654156 5.300937 23.551339 0.000000 0.000000 0.000000 -103.562702 -25.922897 168.867685 -2.576802 -2.976874 -0.664398 1.699164 -3.449700 -0.224739 3.539944 3.734301 -2.258109 0.000000 0.000000 0.000000 3.236271 4.421360 -1.163392 3.695476 -1.163344 2.942167 0.000000 0.000000 0.000000 4.995203 4.648225 -1.856650 6.488761 -10.915449 9.557514 50.792251 -1.463537 -18.724091 19.254102 -84.920398 19.487450 0.000000 0.000000 0.000000 4.637666 4.149246 -2.757901 9.614325 -19.607340 28.782957 -57.715365 -6.246189 11.955283 -11.523487 80.198831 10.857324 0.000000 0.000000 0.000000 
154.046616 20.332188 278.970490 0.000000 0.000000 0.000000 -108.369892 -18.771433 167.645668 -77.373612 -13.001870 45.124666 69.409352 -6.526107 -7.048374 40.836065 -0.362442 6.779134 0.000000 0.000000 0.000000 -110.154894 -20.480773 168.489306 -123.517879 9.617962 15.739423 105.062168 16.081779 -6.462482 1.543361 8.276040 22.716845 0.000000 0.000000 0.000000 -107.713688 -24.645257 168.846675 -1.356638 -4.015862 -0.652803 -0.036191 -0.311251 0.987942 1.676997 4.363995 -3.008554 0.000000 0.000000 0.000000 0.272883 5.012317 -1.550923 2.870793 -1.666674 3.128276 0.000000 0.000000 0.000000 3.314702 5.100561 -2.533313 8.995514 -12.018415 12.860979 57.801856 -6.601437 -25.433717 55.941268 -87.191115 56.196560 0.000000 0.000000 0.000000 2.858156 4.538160 -3.664915 11.726527 -23.388692 27.931191 -68.511647 -12.853144 1.591919 -95.449285 87.913906 94.810716 0.000000 0.000000 0.000000 
